<svg width="512" height="512" viewBox="0 0 512 512" fill="none" xmlns="http://www.w3.org/2000/svg" role="img" aria-label="DocMap">
  <defs>
    <linearGradient id="dmBg" x1="0" y1="0" x2="512" y2="512" gradientUnits="userSpaceOnUse">
      <stop offset="0" stop-color="#6366F1"/>
      <stop offset="1" stop-color="#4338CA"/>
    </linearGradient>
    <radialGradient id="dmSheen" cx="0.28" cy="0.22" r="0.9">
      <stop offset="0" stop-color="#FFFFFF" stop-opacity="0.20"/>
      <stop offset="0.55" stop-color="#FFFFFF" stop-opacity="0"/>
    </radialGradient>
    <filter id="dmShadow" x="-20%" y="-20%" width="140%" height="140%">
      <feDropShadow dx="0" dy="6" stdDeviation="10" flood-color="#1E1B4B" flood-opacity="0.35"/>
    </filter>
  </defs>

  <rect width="512" height="512" rx="120" fill="url(#dmBg)"/>
  <rect width="512" height="512" rx="120" fill="url(#dmSheen)"/>

  <g transform="translate(256 256) scale(1.3) translate(-256 -256)">
    <g filter="url(#dmShadow)">
      <g stroke="#FFFFFF" stroke-opacity="0.5" stroke-width="16" stroke-linecap="round">
        <line x1="185" y1="331" x2="285" y2="166"/>
        <line x1="185" y1="331" x2="345" y2="346"/>
        <line x1="285" y1="166" x2="345" y2="346"/>
      </g>
      <g fill="#FFFFFF">
        <circle cx="285" cy="166" r="38"/>
        <circle cx="345" cy="346" r="32"/>
      </g>
      <g>
        <path d="M143 285 a12 12 0 0 1 12 -12 H197 L227 303 V371 a12 12 0 0 1 -12 12 H155 a12 12 0 0 1 -12 -12 Z" fill="#FFFFFF"/>
        <path d="M197 273 V303 H227 Z" fill="#C7D2FE"/>
        <g stroke="#4F46E5" stroke-width="9" stroke-linecap="round" stroke-opacity="0.9">
          <line x1="162" y1="322" x2="208" y2="322"/>
          <line x1="162" y1="341" x2="208" y2="341"/>
          <line x1="162" y1="360" x2="194" y2="360"/>
        </g>
      </g>
    </g>
  </g>
</svg>
